<?xml version="1.0" encoding="utf-8" ?>
<svg xmlns="http://www.w3.org/2000/svg" xmlns:xlink="http://www.w3.org/1999/xlink" width="400" height="400">
	<path fill="#6676F9" transform="scale(0.78125 0.78125)" d="M228.363 368.649L189.786 346.118C180.16 340.488 169.14 335.826 160.907 328.225C145.123 313.651 146.876 298.853 146.895 279.813L146.921 212.974C146.856 190.876 146.169 187.021 165.25 176.767L198.841 157.166C201.857 155.427 205.41 152.912 208.728 151.972C209.487 151.757 209.961 151.573 210.605 151.118L210.734 23.7695L297.621 23.7823C299.145 23.55 300.813 23.6032 302.36 23.5401L302.384 151.008C304.899 151.992 307.209 153.519 309.504 154.927L353.324 180.58C363.661 186.495 364.678 195.219 364.676 205.841L364.643 285.978C364.632 304.889 363.426 319.528 346.174 332.167C339.58 336.998 332.036 339.974 325.017 344.048L264.002 379.879C257.657 383.514 257.762 385.048 251.286 381.572L228.363 368.649Z"/>
	<path fill="#6676F9" transform="scale(0.78125 0.78125)" d="M51.8903 304.542C45.0372 301.191 38.7131 298.932 34.7032 291.934C29.03 282.033 30.2576 271.362 30.2527 260.416L30.2456 178.518C30.2524 153.67 28.2855 134.935 48.6162 115.359C54.1681 110.013 60.7676 105.957 67.3681 102.052L156.918 48.625C157.689 49.4027 157.383 110.928 157.418 117.426C157.114 117.743 148.993 122.169 147.772 122.931L118.943 139.976C104.766 148.04 95.7597 154.506 92.9506 171.82C92.1634 176.672 92.6648 182.232 92.6634 187.161L92.7462 324.445C91.693 323.69 90.5196 323.592 89.3533 323.108L51.8903 304.542Z"/>
	<path fill="#6676F9" transform="scale(0.78125 0.78125)" d="M460.437 304.638C449.749 309.567 439.717 315.791 429.286 321.228L422.477 324.678C421.435 325.149 420.166 325.242 419.256 325.955L418.974 189.726C419.039 161.16 418.246 155.629 394.62 141.049L371.893 127.67C366.383 124.579 360.621 121.623 355.314 118.215L355.091 48.8486C361.088 51.4604 366.672 55.3946 372.25 58.762L438.064 97.9374C459.64 110.795 477.447 123.817 481.194 151.337C482.149 158.354 481.695 165.748 481.683 172.823L481.7 270.052C481.7 274.346 481.942 278.802 480.852 282.996L479.623 287.121C475.57 297.723 470.128 300.379 460.437 304.638Z"/>
	<path fill="#6676F9" transform="scale(0.78125 0.78125)" d="M322.444 485.714C308.712 483.853 284.796 469.267 274.691 458.601C277.63 454.772 282.157 451.99 286.137 449.361L416.543 369.741C419.777 367.748 422.866 365.491 426.212 363.691C432.513 368.675 440.114 372.792 447.297 376.374L464.161 383.497C472.712 386.576 473.145 390.393 472.753 399.375C472.356 408.491 463.812 413.555 456.826 417.588L364.793 471.349C348.268 480.872 342.992 486.837 322.444 485.714Z"/>
	<path fill="#6676F9" transform="scale(0.78125 0.78125)" d="M190.53 485.468C176.717 487.547 164.812 482 153.34 475.135L64.75 422.742C57.3134 418.46 44.9352 413.61 41.213 405.3C39.2078 400.823 38.5404 393.547 40.3815 388.97C42.361 384.05 56.1224 380.415 62.0124 377.592L77.4132 369.618C80.5714 367.864 83.6567 365.751 86.9929 364.375L87.875 364.22C88.8747 364.539 89.7586 365.316 90.6102 365.923L142.146 398.169L176.287 418.458L228.711 451.149C230.23 452.17 238.784 457.378 237.553 458.947C229.171 469.624 203.264 483.841 190.53 485.468Z"/>
</svg>
